<svg width="22" height="26" viewBox="0 0 22 26" fill="none" xmlns="http://www.w3.org/2000/svg">
<g clip-path="url(#clip0_6_284)">
<path d="M15.6848 18.8683C18.0665 17.3465 19.6429 14.6917 19.6429 11.6722C19.6429 6.9461 15.7732 3.11464 11 3.11464C6.22679 3.11464 2.35714 6.9461 2.35714 11.6722C2.35714 14.6917 3.93348 17.3416 6.31518 18.8683C6.37411 19.7095 6.51161 20.716 6.66875 21.6447L6.67857 21.6933C2.75 20.0256 0 16.1698 0 11.6722C0 5.6576 4.92545 0.780762 11 0.780762C17.0746 0.780762 22 5.6576 22 11.6722C22 16.1698 19.25 20.0304 15.3214 21.6933L15.3313 21.6398C15.4835 20.7063 15.6259 19.7046 15.6848 18.8683ZM15.5719 17.0158C15.4933 16.7387 15.3804 16.4761 15.2281 16.2281C14.9433 15.7565 14.5652 15.4016 14.1527 15.139C15.1103 14.2832 15.7143 13.0482 15.7143 11.6722C15.7143 9.09521 13.6027 7.00444 11 7.00444C8.39732 7.00444 6.28571 9.09521 6.28571 11.6722C6.28571 13.0482 6.88973 14.2881 7.84732 15.139C7.43482 15.4016 7.0567 15.7565 6.77187 16.2281C6.61964 16.4761 6.5067 16.7387 6.42812 17.0158C4.90089 15.7322 3.92857 13.8116 3.92857 11.6722C3.92857 7.80672 7.09598 4.67056 11 4.67056C14.904 4.67056 18.0714 7.80672 18.0714 11.6722C18.0714 13.8116 17.0991 15.7322 15.5719 17.0158ZM11 15.951C12.6156 15.951 14.1429 16.3691 14.1429 18.0807C14.1429 19.6852 13.5094 23.1423 13.1312 24.5426C12.8808 25.4664 11.9281 25.6804 11 25.6804C10.0719 25.6804 9.12411 25.4664 8.86875 24.5426C8.48571 23.1568 7.85714 19.6949 7.85714 18.0855C7.85714 16.3789 9.38437 15.9559 11 15.9559V15.951ZM11 8.94935C11.7293 8.94935 12.4288 9.23622 12.9445 9.74685C13.4603 10.2575 13.75 10.9501 13.75 11.6722C13.75 12.3944 13.4603 13.0869 12.9445 13.5976C12.4288 14.1082 11.7293 14.3951 11 14.3951C10.2707 14.3951 9.57118 14.1082 9.05546 13.5976C8.53973 13.0869 8.25 12.3944 8.25 11.6722C8.25 10.9501 8.53973 10.2575 9.05546 9.74685C9.57118 9.23622 10.2707 8.94935 11 8.94935Z" fill="white"/>
</g>
<defs>
<clipPath id="clip0_6_284">
<rect width="22" height="24.8947" fill="white" transform="translate(0 0.780762)"/>
</clipPath>
</defs>
</svg>
