<svg width="42" height="42" viewBox="0 0 42 42" fill="none" xmlns="http://www.w3.org/2000/svg">
<path d="M19.8389 0.725444L10.9505 2.64096C10.6319 2.7089 10.3462 2.884 10.1411 3.13706C9.93592 3.39012 9.8237 3.70586 9.82311 4.03163V19.3284C9.1746 19.1031 8.49282 18.9885 7.80629 18.9894C4.7019 18.9894 2.18518 21.2689 2.18518 24.0809C2.18518 26.8928 4.7019 29.1724 7.80637 29.1724C9.93984 29.1724 12.0737 28.0127 12.9606 26.0355C13.7315 24.3172 13.4274 22.2516 13.4274 20.4087V8.18036L25.6681 5.33732C25.626 2.31299 22.8101 0.0851901 19.839 0.725526L19.8389 0.725444Z" fill="#00ADEF"/>
<path d="M19.8345 14.8211V31.1981C19.8343 31.2372 19.825 31.2756 19.8074 31.3105C19.7897 31.3453 19.7642 31.3756 19.7328 31.3989C19.7015 31.4222 19.6651 31.4378 19.6267 31.4446C19.5882 31.4515 19.5487 31.4492 19.5112 31.4381C18.9605 31.2807 18.3905 31.2012 17.8177 31.2017C14.7132 31.2017 12.1966 33.4813 12.1966 36.2932C12.1966 39.1052 14.7132 41.3847 17.8177 41.3847C19.9512 41.3847 22.0851 40.2251 22.9721 38.2479C23.7428 36.5296 23.4388 34.4639 23.4388 32.621V19.3009C23.439 19.2065 23.4711 19.1149 23.5299 19.0412C23.5888 18.9674 23.6709 18.9157 23.7628 18.8945L35.6795 16.1267C35.7409 16.1123 35.8047 16.1119 35.8663 16.1256C35.9278 16.1393 35.9855 16.1667 36.035 16.2057C36.0845 16.2448 36.1245 16.2945 36.1521 16.3512C36.1797 16.4079 36.1941 16.4701 36.1943 16.5331V29.9461C36.1941 29.9851 36.1849 30.0236 36.1672 30.0585C36.1496 30.0933 36.1241 30.1236 36.0927 30.1469C36.0613 30.1702 36.025 30.1859 35.9865 30.1927C35.948 30.1995 35.9085 30.1973 35.8711 30.1862C35.3203 30.0288 34.7503 29.9492 34.1775 29.9497C31.073 29.9497 28.5564 32.2292 28.5564 35.0412C28.5564 37.8532 31.073 40.1327 34.1774 40.1327C36.0561 40.1327 37.9241 39.1601 38.9777 37.569C39.9987 36.0271 39.7991 34.4075 39.7985 32.6654C39.7976 29.5584 39.7976 26.4514 39.7985 23.3444V10.9233C39.7979 10.7358 39.7554 10.5509 39.674 10.382C39.5927 10.2131 39.4746 10.0645 39.3284 9.94722C39.1822 9.8299 39.0116 9.74677 38.8291 9.70392C38.6466 9.66107 38.4568 9.6596 38.2737 9.6996L20.962 13.4304C20.6433 13.4983 20.3576 13.6734 20.1525 13.9265C19.9473 14.1795 19.8351 14.4953 19.8345 14.8211Z" fill="white"/>
<path d="M33.7335 16.5331C33.7333 16.4701 33.7188 16.4079 33.6912 16.3512C33.6637 16.2945 33.6236 16.2448 33.5741 16.2057C33.5246 16.1667 33.467 16.1393 33.4054 16.1256C33.3439 16.1119 33.28 16.1123 33.2187 16.1267L21.302 18.8945C21.21 18.9157 21.1279 18.9674 21.0691 19.0412C21.0103 19.1149 20.9781 19.2065 20.978 19.3009V32.621C20.978 34.4639 21.282 36.5296 20.5112 38.248C19.7945 39.8456 18.2634 40.909 16.5764 41.2586C16.9849 41.3423 17.4008 41.3846 17.8178 41.3847C19.9513 41.3847 22.0852 40.2251 22.9721 38.2479C23.7429 36.5296 23.4389 34.4639 23.4389 32.621V19.3009C23.4391 19.2065 23.4712 19.1149 23.53 19.0412C23.5889 18.9674 23.671 18.9157 23.7629 18.8945L33.7335 16.5787V16.5331ZM17.3711 31.2192C17.1077 31.2378 16.8458 31.2733 16.587 31.3256C16.7439 31.3576 16.8987 31.3947 17.0504 31.4381C17.086 31.4486 17.1236 31.451 17.1603 31.4452C17.197 31.4394 17.232 31.4256 17.2627 31.4046C17.2933 31.3836 17.319 31.3561 17.3378 31.3241C17.3565 31.292 17.3679 31.2561 17.3711 31.2191V31.2192ZM39.7986 32.6654C39.7977 29.5584 39.7977 26.4514 39.7986 23.3444V10.9233C39.798 10.7358 39.7555 10.5509 39.6741 10.382C39.5928 10.2131 39.4747 10.0645 39.3285 9.94722C39.1823 9.8299 39.0117 9.74677 38.8292 9.70392C38.6467 9.66107 38.4569 9.6596 38.2738 9.6996L36.9176 9.99188C37.0498 10.1084 37.1556 10.2517 37.2281 10.4123C37.3005 10.5729 37.3379 10.7471 37.3377 10.9233V32.6654C37.3383 34.4074 37.5379 36.0271 36.5169 37.569C35.6743 38.8138 34.3838 39.6854 32.9143 40.002C33.3298 40.0888 33.7532 40.1325 34.1776 40.1327C36.0561 40.1327 37.9242 39.1601 38.9778 37.569C39.9988 36.0271 39.7992 34.4075 39.7986 32.6654ZM33.731 29.9671C33.4676 29.9858 33.2056 30.0214 32.9468 30.0736C33.1037 30.1055 33.2585 30.1427 33.4102 30.1862C33.4459 30.1966 33.4834 30.1991 33.5201 30.1933C33.5568 30.1875 33.5918 30.1736 33.6225 30.1526C33.6532 30.1317 33.6788 30.1042 33.6976 30.0721C33.7163 30.04 33.7277 30.0042 33.731 29.9671Z" fill="white"/>
</svg>
